<?xml version="1.0" encoding="utf-8"?>
<!-- Generator: Adobe Illustrator 25.4.1, SVG Export Plug-In . SVG Version: 6.00 Build 0)  -->
<svg version="1.1" id="Layer_1" xmlns="http://www.w3.org/2000/svg" xmlns:xlink="http://www.w3.org/1999/xlink" x="0px" y="0px"
	 viewBox="0 0 314 150.9" style="enable-background:new 0 0 314 150.9;" xml:space="preserve">
<style type="text/css">
	.st0{fill:#3B9CBA;}
	.st1{fill:#D48028;}
	.st2{fill:#3FA648;}
	.st3{fill:#ED5F5B;}
	.st4{fill-rule:evenodd;clip-rule:evenodd;fill:#6F787E;}
	.st5{fill:#6F787E;}
	.st6{fill:#FFFFFF;}
	.st7{font-family:'Roboto-Bold';}
	.st8{font-size:11px;}
	.st9{clip-path:url(#SVGID_00000110442458811361540880000012260950133352020922_);}
	.st10{font-family:'STIXGeneral-Regular';}
	.st11{font-size:11.4245px;}
	.st12{clip-path:url(#SVGID_00000018235882800151794850000000954933370222410393_);}
	.st13{font-family:'STIXGeneral-Bold';}
	.st14{clip-path:url(#SVGID_00000036941635033373552780000012020570141901209785_);}
	.st15{clip-path:url(#SVGID_00000165935824816946934830000004348362287527578261_);}
	.st16{clip-path:url(#SVGID_00000024000036283650101780000015613502321630217134_);}
	.st17{clip-path:url(#SVGID_00000034798018272413355740000006188682184604328070_);}
	.st18{font-family:'STIXGeneral-Italic';}
	.st19{font-size:8.1114px;}
	.st20{clip-path:url(#SVGID_00000080176737713428835820000000541583624032256444_);}
	.st21{clip-path:url(#SVGID_00000057834373181116779720000010844515789528250541_);}
	.st22{clip-path:url(#SVGID_00000065780204062311478960000016719905695712831631_);}
	.st23{clip-path:url(#SVGID_00000062167458729478650730000001830427757844499092_);}
	.st24{clip-path:url(#SVGID_00000083767494740200005680000016869753689331048347_);}
	.st25{clip-path:url(#SVGID_00000118391035964072199030000005008822440751762364_);}
	.st26{clip-path:url(#SVGID_00000094590396856391559660000015601470733673918115_);}
	.st27{clip-path:url(#SVGID_00000183220684597184011380000011513622955759339657_);}
	.st28{clip-path:url(#SVGID_00000088825125784783282200000004896803612027450035_);}
	.st29{clip-path:url(#SVGID_00000050651194210596501130000006931991314452561541_);}
	.st30{clip-path:url(#SVGID_00000042711494476120045820000000119359713116887229_);}
	.st31{clip-path:url(#SVGID_00000124154720612434975260000015828553335189989527_);}
	.st32{clip-path:url(#SVGID_00000114778019727919663820000001736025178465149096_);}
	.st33{clip-path:url(#SVGID_00000003790424482173386360000014381621229244371615_);}
	.st34{clip-path:url(#SVGID_00000165217842340238493050000009187200653750222757_);}
	.st35{clip-path:url(#SVGID_00000144332536542012724580000012699526965269917604_);}
	.st36{clip-path:url(#SVGID_00000044860744915135471640000006733642063419295111_);}
	.st37{clip-path:url(#SVGID_00000111193866934913417170000003611065405084948613_);}
	.st38{clip-path:url(#SVGID_00000106108293203008618070000017639118695626381233_);}
	.st39{clip-path:url(#SVGID_00000123405439008782571170000015228912276524086457_);}
	.st40{clip-path:url(#SVGID_00000044163607837275543480000011790286529222666411_);}
	.st41{clip-path:url(#SVGID_00000042737126949075784100000005130886476027364513_);}
	.st42{clip-path:url(#SVGID_00000053517185327504246680000000966293078440696221_);}
	.st43{clip-path:url(#SVGID_00000122716600584724271210000009451402325709614466_);}
	.st44{clip-path:url(#SVGID_00000021095985125267610470000001584769869041837460_);}
	.st45{clip-path:url(#SVGID_00000120558087701765488150000011739633983739623831_);}
	.st46{clip-path:url(#SVGID_00000132072978588571400290000006670002904520529815_);}
	.st47{clip-path:url(#SVGID_00000090984929442416345340000004888554907718956685_);}
	.st48{clip-path:url(#SVGID_00000072265867033684511430000010532881233171348614_);}
	.st49{clip-path:url(#SVGID_00000073000506306956845530000015620933034703201181_);}
	.st50{clip-path:url(#SVGID_00000016787575394238365360000015916190880039704728_);}
	.st51{clip-path:url(#SVGID_00000021085144126519112050000017721265857036368264_);}
	.st52{clip-path:url(#SVGID_00000059302500236633838370000000477300444987009722_);}
	.st53{clip-path:url(#SVGID_00000132771657386453176490000011851232162995121590_);}
	.st54{clip-path:url(#SVGID_00000140732219427935731550000008443107605657911229_);}
	.st55{clip-path:url(#SVGID_00000101084931206492730110000010379993709728072594_);}
	.st56{clip-path:url(#SVGID_00000129892263938637847050000016486381110242623157_);}
	.st57{clip-path:url(#SVGID_00000148660628079418690050000014153099629886576008_);}
	.st58{clip-path:url(#SVGID_00000007424645876233306800000009055471269305887872_);}
	.st59{clip-path:url(#SVGID_00000003076756687091039690000013500180988583624606_);}
	.st60{clip-path:url(#SVGID_00000118376692638494764700000001264373198059244417_);}
	.st61{clip-path:url(#SVGID_00000052061813155036242630000012198687160447253933_);}
	.st62{clip-path:url(#SVGID_00000080168563867914386450000006537177880178087072_);}
	.st63{clip-path:url(#SVGID_00000057837760295452456220000005303567263556521901_);}
	.st64{clip-path:url(#SVGID_00000013171439683241359800000013681243426889115013_);}
</style>
<rect x="101.8" y="0" class="st0" width="107.7" height="42.5"/>
<rect x="100.1" y="108.4" class="st1" width="107.7" height="42.5"/>
<rect x="206.3" y="54.2" class="st2" width="107.7" height="42.5"/>
<rect y="54.2" class="st3" width="107.7" height="42.5"/>
<polyline class="st4" points="68.6,9.8 68.5,9.7 68.5,9.7 68.4,9.8 68.4,9.8 68.3,9.9 68.3,13.6 65.1,13.6 63.5,13.6 62,13.8 
	60.5,14.2 59.1,14.5 57.7,15.1 56.5,15.7 56.4,15.7 55.3,16.4 54.2,17.2 53.2,18 53.1,18.1 52.2,19 51.5,20 50.8,21.1 50.8,21.2 
	50.3,22.3 49.9,23.5 49.7,24.7 49.6,25.9 49.6,38.4 49.6,38.5 49.7,38.6 57.9,38.6 57.9,38.5 57.9,25.9 58,25.6 58.1,25.2 
	58.2,24.8 58.5,24.5 58.8,24.2 59.1,23.9 60,23.4 61.1,22.9 62.3,22.5 63.7,22.4 65.1,22.2 68.3,22.2 68.3,26 68.4,26 68.4,26.1 
	68.6,26.1 76.6,18.1 76.7,18 76.7,17.8 76.6,17.8 68.6,9.8 "/>
<polygon class="st4" points="76.3,17.9 68.7,25.5 68.7,22 68.6,21.9 68.5,21.9 65.2,21.9 63.7,22 63.6,22 62.3,22.2 61,22.5 
	59.9,23 59.8,23.1 58.9,23.6 58.6,24 58.5,24 58.2,24.3 57.9,24.7 57.9,24.7 57.7,25.1 57.6,25.5 57.6,25.6 57.6,26 57.6,38.2 
	49.9,38.2 49.9,26 50,24.7 50.3,23.5 50.6,22.4 51.1,21.3 51.7,20.2 52.5,19.2 53.4,18.3 54.4,17.5 55.4,16.7 56.6,16 57.8,15.4 
	59.2,14.9 60.6,14.5 62.1,14.2 63.6,14 65.2,13.9 68.6,13.9 68.7,13.9 68.7,10.3 "/>
<polyline class="st4" points="263.5,26.8 263.6,26.7 263.6,26.6 263.5,26.5 263.4,26.5 259.7,26.5 259.7,23.2 259.6,21.6 
	259.5,20.2 259.2,18.7 258.8,17.3 258.2,15.9 257.6,14.6 257.6,14.6 256.9,13.4 256.1,12.3 255.3,11.3 255.2,11.3 254.2,10.4 
	253.2,9.6 252.2,8.9 252.1,8.9 251,8.4 249.9,8.1 248.7,7.8 248.6,7.8 247.4,7.7 234.9,7.7 234.8,7.8 234.8,7.8 234.7,7.9 
	234.7,15.9 234.8,16 234.8,16.1 247.4,16.1 247.7,16.1 248.1,16.2 248.4,16.4 248.8,16.7 249.1,16.9 249.4,17.3 250,18.1 
	250.4,19.2 250.7,20.5 251,21.8 251,23.2 251,26.5 247.4,26.5 247.3,26.5 247.2,26.6 247.2,26.6 247.2,26.7 247.2,26.7 255.3,34.8 
	255.3,34.8 255.5,34.8 263.5,26.8 "/>
<polygon class="st4" points="255.4,34.4 247.8,26.8 251.3,26.8 251.4,26.7 251.4,23.3 251.3,21.8 251.3,21.8 251.1,20.4 250.7,19.2 
	250.3,18 250.3,18 249.7,17.1 249.4,16.7 249.3,16.7 249,16.4 248.6,16.1 248.5,16.1 248.2,15.9 247.8,15.8 247.4,15.7 235.1,15.7 
	235.1,8.1 247.4,8.1 248.6,8.2 249.8,8.4 251,8.8 252,9.2 253.1,9.9 254.1,10.7 255,11.5 255.8,12.5 256.6,13.6 257.3,14.8 
	257.9,15.9 258.4,17.3 258.8,18.7 259.1,20.2 259.3,21.7 259.3,23.3 259.3,26.7 259.4,26.7 259.5,26.8 263,26.8 "/>
<polyline class="st4" points="242.8,141.1 242.8,141.1 243,141.1 243.1,141.1 243.1,137.3 246.3,137.3 247.8,137.2 247.9,137.2 
	249.4,137 250.9,136.7 252.3,136.3 253.7,135.8 255,135.2 255,135.2 256.2,134.5 257.3,133.7 258.3,132.8 258.3,132.7 259.2,131.8 
	260,130.8 260.6,129.7 260.7,129.7 261.2,128.6 261.5,127.4 261.8,126.2 261.8,126.2 261.8,124.9 261.8,112.4 261.8,112.3 
	261.7,112.3 253.7,112.3 253.6,112.3 253.5,112.4 253.5,112.4 253.5,125.3 253.4,125.7 253.2,126 252.9,126.3 252.6,126.6 
	252.3,126.9 251.5,127.5 250.4,127.9 249.1,128.3 247.8,128.5 246.3,128.6 243.1,128.6 243.1,124.9 243,124.8 243,124.7 
	242.9,124.7 242.8,124.8 242.8,124.9 234.8,132.9 234.7,132.9 234.7,133 234.8,133 242.8,141.1 "/>
<polygon class="st4" points="235.1,132.9 242.7,125.3 242.7,128.8 242.8,128.9 242.8,128.9 246.4,128.9 247.8,128.9 249.2,128.7 
	250.4,128.3 251.5,127.8 251.6,127.8 252.5,127.2 252.9,126.9 252.9,126.9 253.2,126.5 253.5,126.2 253.5,126.1 253.7,125.7 
	253.8,125.3 253.8,112.6 261.5,112.6 261.5,125 261.4,126.2 261.2,127.3 260.8,128.5 260.3,129.6 259.7,130.6 258.9,131.6 
	258,132.5 257.1,133.4 256,134.2 254.8,134.9 253.6,135.4 252.3,136 250.9,136.4 249.4,136.7 247.8,136.8 246.4,136.9 242.9,136.9 
	242.8,137 242.8,137 242.7,137.1 242.7,140.5 "/>
<polyline class="st4" points="48.8,118.4 48.7,118.4 48.7,118.5 48.8,118.6 48.8,118.6 52.6,118.6 52.6,121.8 52.6,123.4 
	52.6,123.4 52.8,125 53.2,126.5 53.5,127.9 54.1,129.2 54.7,130.5 54.7,130.5 55.4,131.7 56.2,132.8 57,133.8 57.1,133.9 58,134.8 
	59,135.5 60.1,136.1 60.2,136.2 61.3,136.7 62.5,137.1 63.7,137.3 64.9,137.4 77.5,137.4 77.6,137.3 77.6,129.1 77.5,129.1 
	77.4,129 64.6,129 64.2,128.9 63.9,128.7 63.5,128.5 63.2,128.2 62.9,127.8 62.4,127 61.9,125.9 61.5,124.7 61.4,123.3 61.2,121.8 
	61.2,118.6 65,118.6 65.1,118.6 65.1,118.4 65,118.3 57,110.3 57,110.3 56.9,110.3 56.9,110.3 56.8,110.4 48.8,118.4 "/>
<polygon class="st4" points="56.9,110.7 64.5,118.3 61.1,118.3 61,118.3 60.9,118.4 60.9,118.4 60.9,121.9 61,123.4 61.2,124.7 
	61.5,126 62,127 62.1,127.1 62.6,128 63,128.4 63,128.5 63.3,128.8 63.7,129 63.7,129.1 64.2,129.2 64.5,129.4 77.2,129.4 77.2,137 
	65,137 63.7,137 62.6,136.7 61.4,136.4 60.3,135.8 59.2,135.2 58.2,134.5 57.3,133.6 56.5,132.6 55.7,131.6 55,130.4 54.4,129.1 
	53.9,127.8 53.5,126.4 53.2,124.9 53,123.4 52.9,121.9 52.9,118.4 52.9,118.3 52.8,118.3 49.3,118.3 "/>
<path class="st5" d="M153.3,72.6l2.1,5.2h-4.3L153.3,72.6 M153.8,70.7h-0.2l-3.1,7.7h6.5L153.8,70.7z"/>
<path class="st5" d="M160,72.5l0.7-2.2h-0.8l-0.7,2.2h-1l-0.1,0.3h1l-0.9,3c-0.3,1-0.4,1.6-0.4,1.8c0,0.3,0.1,0.5,0.2,0.6
	c0.1,0.2,0.3,0.3,0.6,0.3s0.7-0.2,1-0.6c0.4-0.4,0.7-0.9,1-1.6h-0.3c-0.2,0.5-0.5,0.9-0.7,1.2c-0.3,0.3-0.5,0.5-0.7,0.5
	c-0.1,0-0.2,0-0.2-0.1s-0.1-0.1-0.1-0.3c0-0.2,0.2-0.8,0.5-1.8l0.9-3.1h1.1l0.1-0.3L160,72.5"/>
<path class="st6" d="M150.1,89.9c2.6-1,5.8-2.6,7.8-4.3l-1.6,4.3l1.6,4.3C155.9,92.5,152.7,90.8,150.1,89.9"/>
<path class="st5" d="M140.3,74.1c0-4.2,1.7-8.1,4.5-10.8c2.8-2.8,6.6-4.5,10.8-4.5s8.1,1.7,10.8,4.5c2.8,2.8,4.5,6.6,4.5,10.8
	s-1.7,8.1-4.5,10.8c-2.8,2.8-6.6,4.5-10.8,4.5v1c9,0,16.3-7.3,16.3-16.3s-7.3-16.3-16.3-16.3s-16.3,7.3-16.3,16.3L140.3,74.1"/>
<path class="st5" d="M150.1,89.9c2.6-1,5.8-2.6,7.8-4.3l-1.6,4.3l1.6,4.3C155.9,92.5,152.7,90.8,150.1,89.9"/>
<text transform="matrix(1 0 0 1 112.5434 16.8515)" class="st6 st7 st8">Advance Particles</text>
<text transform="matrix(1 0 0 1 234.7003 69.5172)" class="st6 st7 st8">Depositing</text>
<text transform="matrix(1 0 0 1 19.3083 69.5172)" class="st6 st7 st8">Interpolating</text>
<text transform="matrix(1 0 0 1 115.791 123.8499)" class="st6 st7 st8">Advance Fields</text>
<g>
	<g>
		<defs>
			<rect id="SVGID_1_" x="116.8" y="24.8" width="79" height="10.6"/>
		</defs>
		<clipPath id="SVGID_00000168813117273272844760000012648882676265865118_">
			<use xlink:href="#SVGID_1_"  style="overflow:visible;"/>
		</clipPath>
		<g style="clip-path:url(#SVGID_00000168813117273272844760000012648882676265865118_);">
			<text transform="matrix(1 0 0 1 116.3198 32.5236)" class="st6 st10 st11">(</text>
		</g>
	</g>
	<g>
		<defs>
			<rect id="SVGID_00000103226216669311238600000011096715920600088491_" x="116.8" y="24.8" width="79" height="10.6"/>
		</defs>
		<clipPath id="SVGID_00000002369111601109265810000008008157980997963443_">
			<use xlink:href="#SVGID_00000103226216669311238600000011096715920600088491_"  style="overflow:visible;"/>
		</clipPath>
		<g style="clip-path:url(#SVGID_00000002369111601109265810000008008157980997963443_);">
			<text transform="matrix(1 0 0 1 120.1245 32.5236)" class="st6 st13 st11">E</text>
		</g>
	</g>
	<g>
		<defs>
			<rect id="SVGID_00000091734583169608164070000005956033961468471970_" x="116.8" y="24.8" width="79" height="10.6"/>
		</defs>
		<clipPath id="SVGID_00000067927789532947825490000017919046763707247547_">
			<use xlink:href="#SVGID_00000091734583169608164070000005956033961468471970_"  style="overflow:visible;"/>
		</clipPath>
		<g style="clip-path:url(#SVGID_00000067927789532947825490000017919046763707247547_);">
			<text transform="matrix(1 0 0 1 127.7437 32.5236)" class="st6 st10 st11">,</text>
		</g>
	</g>
	<g>
		<defs>
			<rect id="SVGID_00000008861208611176271850000000603200345868767675_" x="116.8" y="24.8" width="79" height="10.6"/>
		</defs>
		<clipPath id="SVGID_00000163769251599165913700000010262408608011575454_">
			<use xlink:href="#SVGID_00000008861208611176271850000000603200345868767675_"  style="overflow:visible;"/>
		</clipPath>
		<g style="clip-path:url(#SVGID_00000163769251599165913700000010262408608011575454_);">
			<text transform="matrix(1 0 0 1 132.5044 32.5236)" class="st6 st13 st11">B</text>
		</g>
	</g>
	<g>
		<defs>
			<rect id="SVGID_00000156552533235430411640000005590468318592286080_" x="116.8" y="24.8" width="79" height="10.6"/>
		</defs>
		<clipPath id="SVGID_00000054972267306629714680000001271056728373651090_">
			<use xlink:href="#SVGID_00000156552533235430411640000005590468318592286080_"  style="overflow:visible;"/>
		</clipPath>
		<g style="clip-path:url(#SVGID_00000054972267306629714680000001271056728373651090_);">
			<text transform="matrix(1 0 0 1 140.1245 32.5236)" class="st6 st10 st11">)</text>
		</g>
	</g>
	<g>
		<defs>
			<rect id="SVGID_00000117649435945640012730000002494628598710286465_" x="116.8" y="24.8" width="79" height="10.6"/>
		</defs>
		<clipPath id="SVGID_00000178172665661770501820000016803629831049263781_">
			<use xlink:href="#SVGID_00000117649435945640012730000002494628598710286465_"  style="overflow:visible;"/>
		</clipPath>
		<g style="clip-path:url(#SVGID_00000178172665661770501820000016803629831049263781_);">
			<text transform="matrix(1 0 0 1 143.9292 35.3781)" class="st6 st18 st19">i</text>
		</g>
	</g>
	<g>
		<defs>
			<rect id="SVGID_00000070802911906908701180000011585409302148812438_" x="116.8" y="24.8" width="79" height="10.6"/>
		</defs>
		<clipPath id="SVGID_00000070820705883894309780000017355445975865375384_">
			<use xlink:href="#SVGID_00000070802911906908701180000011585409302148812438_"  style="overflow:visible;"/>
		</clipPath>
		<g style="clip-path:url(#SVGID_00000070820705883894309780000017355445975865375384_);">
			<text transform="matrix(1 0 0 1 149.3579 32.5236)" class="st6 st10 st11">→</text>
		</g>
	</g>
	<g>
		<defs>
			<rect id="SVGID_00000079453161503417390820000015309911432953258157_" x="116.8" y="24.8" width="79" height="10.6"/>
		</defs>
		<clipPath id="SVGID_00000050627606245249096190000009624242416133453465_">
			<use xlink:href="#SVGID_00000079453161503417390820000015309911432953258157_"  style="overflow:visible;"/>
		</clipPath>
		<g style="clip-path:url(#SVGID_00000050627606245249096190000009624242416133453465_);">
			<text transform="matrix(1 0 0 1 163.1104 32.5236)" class="st6 st13 st11">v</text>
		</g>
	</g>
	<g>
		<defs>
			<rect id="SVGID_00000024698945667666047810000012096241319781002383_" x="116.8" y="24.8" width="79" height="10.6"/>
		</defs>
		<clipPath id="SVGID_00000016760172048114241090000004398616462874772113_">
			<use xlink:href="#SVGID_00000024698945667666047810000012096241319781002383_"  style="overflow:visible;"/>
		</clipPath>
		<g style="clip-path:url(#SVGID_00000016760172048114241090000004398616462874772113_);">
			<text transform="matrix(1 0 0 1 168.8223 35.3781)" class="st6 st18 st19">i</text>
		</g>
	</g>
	<g>
		<defs>
			<rect id="SVGID_00000119104971017265908030000003142417173346181791_" x="116.8" y="24.8" width="79" height="10.6"/>
		</defs>
		<clipPath id="SVGID_00000069378968611972592270000015716047334816833169_">
			<use xlink:href="#SVGID_00000119104971017265908030000003142417173346181791_"  style="overflow:visible;"/>
		</clipPath>
		<g style="clip-path:url(#SVGID_00000069378968611972592270000015716047334816833169_);">
			<text transform="matrix(1 0 0 1 174.251 32.5236)" class="st6 st10 st11">→</text>
		</g>
	</g>
	<g>
		<defs>
			<rect id="SVGID_00000095306873713029980910000002399229936452022947_" x="116.8" y="24.8" width="79" height="10.6"/>
		</defs>
		<clipPath id="SVGID_00000146497079013066386080000014604075510952502953_">
			<use xlink:href="#SVGID_00000095306873713029980910000002399229936452022947_"  style="overflow:visible;"/>
		</clipPath>
		<g style="clip-path:url(#SVGID_00000146497079013066386080000014604075510952502953_);">
			<text transform="matrix(1 0 0 1 188.0039 32.5236)" class="st6 st13 st11">x</text>
		</g>
	</g>
	<g>
		<defs>
			<rect id="SVGID_00000059275833685964558420000002083485590059159449_" x="116.8" y="24.8" width="79" height="10.6"/>
		</defs>
		<clipPath id="SVGID_00000116935734339416122130000012168078596346420864_">
			<use xlink:href="#SVGID_00000059275833685964558420000002083485590059159449_"  style="overflow:visible;"/>
		</clipPath>
		<g style="clip-path:url(#SVGID_00000116935734339416122130000012168078596346420864_);">
			<text transform="matrix(1 0 0 1 193.7158 35.3781)" class="st6 st18 st19">i</text>
		</g>
	</g>
</g>
<g>
	<g>
		<defs>
			<rect id="SVGID_00000086693241307186248430000010437975278135406260_" x="14.5" y="78.9" width="76" height="12.2"/>
		</defs>
		<clipPath id="SVGID_00000124162114943098648040000017203340488122400152_">
			<use xlink:href="#SVGID_00000086693241307186248430000010437975278135406260_"  style="overflow:visible;"/>
		</clipPath>
		<g style="clip-path:url(#SVGID_00000124162114943098648040000017203340488122400152_);">
			<text transform="matrix(1 0 0 1 13.95 86.6969)" class="st6 st10 st11">(</text>
		</g>
	</g>
	<g>
		<defs>
			<rect id="SVGID_00000094616412199811453860000007096961402815040697_" x="14.5" y="78.9" width="76" height="12.2"/>
		</defs>
		<clipPath id="SVGID_00000155849578025503816310000003397921147703784838_">
			<use xlink:href="#SVGID_00000094616412199811453860000007096961402815040697_"  style="overflow:visible;"/>
		</clipPath>
		<g style="clip-path:url(#SVGID_00000155849578025503816310000003397921147703784838_);">
			<text transform="matrix(1 0 0 1 17.7547 86.6969)" class="st6 st13 st11">E</text>
		</g>
	</g>
	<g>
		<defs>
			<rect id="SVGID_00000045590368343292137560000006898910333292075671_" x="14.5" y="78.9" width="76" height="12.2"/>
		</defs>
		<clipPath id="SVGID_00000058559407233814231380000014680799920231123871_">
			<use xlink:href="#SVGID_00000045590368343292137560000006898910333292075671_"  style="overflow:visible;"/>
		</clipPath>
		<g style="clip-path:url(#SVGID_00000058559407233814231380000014680799920231123871_);">
			<text transform="matrix(1 0 0 1 25.3748 86.6969)" class="st6 st10 st11">,</text>
		</g>
	</g>
	<g>
		<defs>
			<rect id="SVGID_00000121276207395279169840000011368472926514414502_" x="14.5" y="78.9" width="76" height="12.2"/>
		</defs>
		<clipPath id="SVGID_00000090999318729749328040000018092354298406343041_">
			<use xlink:href="#SVGID_00000121276207395279169840000011368472926514414502_"  style="overflow:visible;"/>
		</clipPath>
		<g style="clip-path:url(#SVGID_00000090999318729749328040000018092354298406343041_);">
			<text transform="matrix(1 0 0 1 30.1356 86.6969)" class="st6 st13 st11">B</text>
		</g>
	</g>
	<g>
		<defs>
			<rect id="SVGID_00000010303069128172107190000006829479073821909934_" x="14.5" y="78.9" width="76" height="12.2"/>
		</defs>
		<clipPath id="SVGID_00000104706394553728715700000009072514355824190124_">
			<use xlink:href="#SVGID_00000010303069128172107190000006829479073821909934_"  style="overflow:visible;"/>
		</clipPath>
		<g style="clip-path:url(#SVGID_00000104706394553728715700000009072514355824190124_);">
			<text transform="matrix(1 0 0 1 37.7547 86.6969)" class="st6 st10 st11">)</text>
		</g>
	</g>
	<g>
		<defs>
			<rect id="SVGID_00000032611537991311925680000017362351575865066394_" x="14.5" y="78.9" width="76" height="12.2"/>
		</defs>
		<clipPath id="SVGID_00000132071917327569045880000013649764125308837034_">
			<use xlink:href="#SVGID_00000032611537991311925680000017362351575865066394_"  style="overflow:visible;"/>
		</clipPath>
		<g style="clip-path:url(#SVGID_00000132071917327569045880000013649764125308837034_);">
			<text transform="matrix(1 0 0 1 41.5594 89.5534)" class="st6 st18 st19">j</text>
		</g>
	</g>
	<g>
		<defs>
			<rect id="SVGID_00000053544358207106374910000010756876207751262638_" x="14.5" y="78.9" width="76" height="12.2"/>
		</defs>
		<clipPath id="SVGID_00000116237677543252986040000001978488898653105299_">
			<use xlink:href="#SVGID_00000053544358207106374910000010756876207751262638_"  style="overflow:visible;"/>
		</clipPath>
		<g style="clip-path:url(#SVGID_00000116237677543252986040000001978488898653105299_);">
			<text transform="matrix(1 0 0 1 46.9881 86.6969)" class="st6 st10 st11">→</text>
		</g>
	</g>
	<g>
		<defs>
			<rect id="SVGID_00000054237588245778366170000000794869752996383925_" x="14.5" y="78.9" width="76" height="12.2"/>
		</defs>
		<clipPath id="SVGID_00000127001634325037172420000011781257797515480500_">
			<use xlink:href="#SVGID_00000054237588245778366170000000794869752996383925_"  style="overflow:visible;"/>
		</clipPath>
		<g style="clip-path:url(#SVGID_00000127001634325037172420000011781257797515480500_);">
			<text transform="matrix(1 0 0 1 60.741 86.6969)" class="st6 st10 st11">(</text>
		</g>
	</g>
	<g>
		<defs>
			<rect id="SVGID_00000136370275309374885940000000084898371458526909_" x="14.5" y="78.9" width="76" height="12.2"/>
		</defs>
		<clipPath id="SVGID_00000062912001348026663460000006134475071549365923_">
			<use xlink:href="#SVGID_00000136370275309374885940000000084898371458526909_"  style="overflow:visible;"/>
		</clipPath>
		<g style="clip-path:url(#SVGID_00000062912001348026663460000006134475071549365923_);">
			<text transform="matrix(1 0 0 1 64.5448 86.6969)" class="st6 st13 st11">E</text>
		</g>
	</g>
	<g>
		<defs>
			<rect id="SVGID_00000000186044668226145670000018122701897471778731_" x="14.5" y="78.9" width="76" height="12.2"/>
		</defs>
		<clipPath id="SVGID_00000039135206188534878440000012249892378987519128_">
			<use xlink:href="#SVGID_00000000186044668226145670000018122701897471778731_"  style="overflow:visible;"/>
		</clipPath>
		<g style="clip-path:url(#SVGID_00000039135206188534878440000012249892378987519128_);">
			<text transform="matrix(1 0 0 1 72.1639 86.6969)" class="st6 st10 st11">,</text>
		</g>
	</g>
	<g>
		<defs>
			<rect id="SVGID_00000096772445114425089440000000742727788065251255_" x="14.5" y="78.9" width="76" height="12.2"/>
		</defs>
		<clipPath id="SVGID_00000104700321773224145050000010026243977925311374_">
			<use xlink:href="#SVGID_00000096772445114425089440000000742727788065251255_"  style="overflow:visible;"/>
		</clipPath>
		<g style="clip-path:url(#SVGID_00000104700321773224145050000010026243977925311374_);">
			<text transform="matrix(1 0 0 1 76.9246 86.6969)" class="st6 st13 st11">B</text>
		</g>
	</g>
	<g>
		<defs>
			<rect id="SVGID_00000103947307839100311980000013726157236369377467_" x="14.5" y="78.9" width="76" height="12.2"/>
		</defs>
		<clipPath id="SVGID_00000160179197071673630340000017071636720586909092_">
			<use xlink:href="#SVGID_00000103947307839100311980000013726157236369377467_"  style="overflow:visible;"/>
		</clipPath>
		<g style="clip-path:url(#SVGID_00000160179197071673630340000017071636720586909092_);">
			<text transform="matrix(1 0 0 1 84.5457 86.6969)" class="st6 st10 st11">)</text>
		</g>
	</g>
	<g>
		<defs>
			<rect id="SVGID_00000170256613788537667520000005677392321494277038_" x="14.5" y="78.9" width="76" height="12.2"/>
		</defs>
		<clipPath id="SVGID_00000019651797521837561360000006781421550925763228_">
			<use xlink:href="#SVGID_00000170256613788537667520000005677392321494277038_"  style="overflow:visible;"/>
		</clipPath>
		<g style="clip-path:url(#SVGID_00000019651797521837561360000006781421550925763228_);">
			<text transform="matrix(1 0 0 1 88.3494 89.5534)" class="st6 st18 st19">i</text>
		</g>
	</g>
</g>
<g>
	<g>
		<defs>
			<rect id="SVGID_00000054972373807534741990000016691453685346734756_" x="120" y="132.2" width="71.1" height="12.4"/>
		</defs>
		<clipPath id="SVGID_00000036209564810105664250000007391423109706893759_">
			<use xlink:href="#SVGID_00000054972373807534741990000016691453685346734756_"  style="overflow:visible;"/>
		</clipPath>
		<g style="clip-path:url(#SVGID_00000036209564810105664250000007391423109706893759_);">
			<text transform="matrix(1 0 0 1 119.504 140.1166)" class="st6 st10 st11">(</text>
		</g>
	</g>
	<g>
		<defs>
			<rect id="SVGID_00000159464871582323542740000011021696521786893472_" x="120" y="132.2" width="71.1" height="12.4"/>
		</defs>
		<clipPath id="SVGID_00000131325714425295022200000016431428134335441558_">
			<use xlink:href="#SVGID_00000159464871582323542740000011021696521786893472_"  style="overflow:visible;"/>
		</clipPath>
		<g style="clip-path:url(#SVGID_00000131325714425295022200000016431428134335441558_);">
			<text transform="matrix(1 0 0 1 123.7736 140.1166)" class="st6 st18 st11">ρ</text>
		</g>
	</g>
	<g>
		<defs>
			<rect id="SVGID_00000140736925109045974100000013502111118673703847_" x="120" y="132.2" width="71.1" height="12.4"/>
		</defs>
		<clipPath id="SVGID_00000083798591037510830730000004060555107681543063_">
			<use xlink:href="#SVGID_00000140736925109045974100000013502111118673703847_"  style="overflow:visible;"/>
		</clipPath>
		<g style="clip-path:url(#SVGID_00000083798591037510830730000004060555107681543063_);">
			<text transform="matrix(1 0 0 1 129.5304 140.1166)" class="st6 st10 st11">,</text>
		</g>
	</g>
	<g>
		<defs>
			<rect id="SVGID_00000029723893908758879090000014451303945530199959_" x="120" y="132.2" width="71.1" height="12.4"/>
		</defs>
		<clipPath id="SVGID_00000034056366309184700180000016974156134072886162_">
			<use xlink:href="#SVGID_00000029723893908758879090000014451303945530199959_"  style="overflow:visible;"/>
		</clipPath>
		<g style="clip-path:url(#SVGID_00000034056366309184700180000016974156134072886162_);">
			<text transform="matrix(1 0 0 1 134.5685 140.1166)" class="st6 st13 st11">j</text>
		</g>
	</g>
	<g>
		<defs>
			<rect id="SVGID_00000131332702882764763510000005423358191671213220_" x="120" y="132.2" width="71.1" height="12.4"/>
		</defs>
		<clipPath id="SVGID_00000052810603296783591350000007226029787368606361_">
			<use xlink:href="#SVGID_00000131332702882764763510000005423358191671213220_"  style="overflow:visible;"/>
		</clipPath>
		<g style="clip-path:url(#SVGID_00000052810603296783591350000007226029787368606361_);">
			<text transform="matrix(1 0 0 1 138.3732 140.1166)" class="st6 st10 st11">)</text>
		</g>
	</g>
	<g>
		<defs>
			<rect id="SVGID_00000163054530584191678840000012580823797765727116_" x="120" y="132.2" width="71.1" height="12.4"/>
		</defs>
		<clipPath id="SVGID_00000068672348813445083380000013046382821723434941_">
			<use xlink:href="#SVGID_00000163054530584191678840000012580823797765727116_"  style="overflow:visible;"/>
		</clipPath>
		<g style="clip-path:url(#SVGID_00000068672348813445083380000013046382821723434941_);">
			<text transform="matrix(1 0 0 1 142.1769 142.973)" class="st6 st18 st19">j</text>
		</g>
	</g>
	<g>
		<defs>
			<rect id="SVGID_00000030484911433410732790000007285304746120299663_" x="120" y="132.2" width="71.1" height="12.4"/>
		</defs>
		<clipPath id="SVGID_00000039108282181992477900000005381369400324068793_">
			<use xlink:href="#SVGID_00000030484911433410732790000007285304746120299663_"  style="overflow:visible;"/>
		</clipPath>
		<g style="clip-path:url(#SVGID_00000039108282181992477900000005381369400324068793_);">
			<text transform="matrix(1 0 0 1 147.6056 140.1166)" class="st6 st10 st11">→</text>
		</g>
	</g>
	<g>
		<defs>
			<rect id="SVGID_00000139253317634071835700000007395990326951009934_" x="120" y="132.2" width="71.1" height="12.4"/>
		</defs>
		<clipPath id="SVGID_00000082344333249609013110000016013181717976638372_">
			<use xlink:href="#SVGID_00000139253317634071835700000007395990326951009934_"  style="overflow:visible;"/>
		</clipPath>
		<g style="clip-path:url(#SVGID_00000082344333249609013110000016013181717976638372_);">
			<text transform="matrix(1 0 0 1 161.359 140.1166)" class="st6 st10 st11">(</text>
		</g>
	</g>
	<g>
		<defs>
			<rect id="SVGID_00000005967226785136329510000007021814372424445873_" x="120" y="132.2" width="71.1" height="12.4"/>
		</defs>
		<clipPath id="SVGID_00000107584709170213159320000011778044008632613816_">
			<use xlink:href="#SVGID_00000005967226785136329510000007021814372424445873_"  style="overflow:visible;"/>
		</clipPath>
		<g style="clip-path:url(#SVGID_00000107584709170213159320000011778044008632613816_);">
			<text transform="matrix(1 0 0 1 165.1627 140.1166)" class="st6 st13 st11">E</text>
		</g>
	</g>
	<g>
		<defs>
			<rect id="SVGID_00000154423780918004756980000015916836749109587889_" x="120" y="132.2" width="71.1" height="12.4"/>
		</defs>
		<clipPath id="SVGID_00000108275063194867974030000007745026733717815450_">
			<use xlink:href="#SVGID_00000154423780918004756980000015916836749109587889_"  style="overflow:visible;"/>
		</clipPath>
		<g style="clip-path:url(#SVGID_00000108275063194867974030000007745026733717815450_);">
			<text transform="matrix(1 0 0 1 172.7829 140.1166)" class="st6 st10 st11">,</text>
		</g>
	</g>
	<g>
		<defs>
			<rect id="SVGID_00000044160870934317379330000010686227415492851100_" x="120" y="132.2" width="71.1" height="12.4"/>
		</defs>
		<clipPath id="SVGID_00000141433169911399925330000008113560829004071042_">
			<use xlink:href="#SVGID_00000044160870934317379330000010686227415492851100_"  style="overflow:visible;"/>
		</clipPath>
		<g style="clip-path:url(#SVGID_00000141433169911399925330000008113560829004071042_);">
			<text transform="matrix(1 0 0 1 177.5426 140.1166)" class="st6 st13 st11">B</text>
		</g>
	</g>
	<g>
		<defs>
			<rect id="SVGID_00000136410370342034647590000017693634312158225303_" x="120" y="132.2" width="71.1" height="12.4"/>
		</defs>
		<clipPath id="SVGID_00000121981102021406516490000014034365033367469489_">
			<use xlink:href="#SVGID_00000136410370342034647590000017693634312158225303_"  style="overflow:visible;"/>
		</clipPath>
		<g style="clip-path:url(#SVGID_00000121981102021406516490000014034365033367469489_);">
			<text transform="matrix(1 0 0 1 185.1627 140.1166)" class="st6 st10 st11">)</text>
		</g>
	</g>
	<g>
		<defs>
			<rect id="SVGID_00000068636090599826903970000004782716494728236208_" x="120" y="132.2" width="71.1" height="12.4"/>
		</defs>
		<clipPath id="SVGID_00000145024674998754740430000006100649883385891727_">
			<use xlink:href="#SVGID_00000068636090599826903970000004782716494728236208_"  style="overflow:visible;"/>
		</clipPath>
		<g style="clip-path:url(#SVGID_00000145024674998754740430000006100649883385891727_);">
			<text transform="matrix(1 0 0 1 188.9664 142.973)" class="st6 st18 st19">j</text>
		</g>
	</g>
</g>
<g>
	<g>
		<defs>
			<rect id="SVGID_00000178165033839175771850000008884461239517117612_" x="227.8" y="78.4" width="67.4" height="12.4"/>
		</defs>
		<clipPath id="SVGID_00000008135338347416269370000009423565902608250520_">
			<use xlink:href="#SVGID_00000178165033839175771850000008884461239517117612_"  style="overflow:visible;"/>
		</clipPath>
		<g style="clip-path:url(#SVGID_00000008135338347416269370000009423565902608250520_);">
			<text transform="matrix(1 0 0 1 227.2424 86.2267)" class="st6 st10 st11">(</text>
		</g>
	</g>
	<g>
		<defs>
			<rect id="SVGID_00000089539881943323547930000001434394308394481343_" x="227.8" y="78.4" width="67.4" height="12.4"/>
		</defs>
		<clipPath id="SVGID_00000153705412106191403650000015871383409442435758_">
			<use xlink:href="#SVGID_00000089539881943323547930000001434394308394481343_"  style="overflow:visible;"/>
		</clipPath>
		<g style="clip-path:url(#SVGID_00000153705412106191403650000015871383409442435758_);">
			<text transform="matrix(1 0 0 1 231.0471 86.2267)" class="st6 st13 st11">x</text>
		</g>
	</g>
	<g>
		<defs>
			<rect id="SVGID_00000169543039609342850470000012680944985930218378_" x="227.8" y="78.4" width="67.4" height="12.4"/>
		</defs>
		<clipPath id="SVGID_00000021088253060768958950000002336436186824027316_">
			<use xlink:href="#SVGID_00000169543039609342850470000012680944985930218378_"  style="overflow:visible;"/>
		</clipPath>
		<g style="clip-path:url(#SVGID_00000021088253060768958950000002336436186824027316_);">
			<text transform="matrix(1 0 0 1 236.759 86.2267)" class="st6 st10 st11">,</text>
		</g>
	</g>
	<g>
		<defs>
			<rect id="SVGID_00000078029349877843828640000012143937602147445129_" x="227.8" y="78.4" width="67.4" height="12.4"/>
		</defs>
		<clipPath id="SVGID_00000128464143193080796840000005385119456518665372_">
			<use xlink:href="#SVGID_00000078029349877843828640000012143937602147445129_"  style="overflow:visible;"/>
		</clipPath>
		<g style="clip-path:url(#SVGID_00000128464143193080796840000005385119456518665372_);">
			<text transform="matrix(1 0 0 1 241.5197 86.2267)" class="st6 st13 st11">v</text>
		</g>
	</g>
	<g>
		<defs>
			<rect id="SVGID_00000052075863338213447390000013114345828423045304_" x="227.8" y="78.4" width="67.4" height="12.4"/>
		</defs>
		<clipPath id="SVGID_00000101063073977475592790000005953522039166331583_">
			<use xlink:href="#SVGID_00000052075863338213447390000013114345828423045304_"  style="overflow:visible;"/>
		</clipPath>
		<g style="clip-path:url(#SVGID_00000101063073977475592790000005953522039166331583_);">
			<text transform="matrix(1 0 0 1 247.2316 86.2267)" class="st6 st10 st11">)</text>
		</g>
	</g>
	<g>
		<defs>
			<rect id="SVGID_00000000193863650298947900000004478966788389942439_" x="227.8" y="78.4" width="67.4" height="12.4"/>
		</defs>
		<clipPath id="SVGID_00000122703856382047571200000004549287993086439857_">
			<use xlink:href="#SVGID_00000000193863650298947900000004478966788389942439_"  style="overflow:visible;"/>
		</clipPath>
		<g style="clip-path:url(#SVGID_00000122703856382047571200000004549287993086439857_);">
			<text transform="matrix(1 0 0 1 251.0353 89.0832)" class="st6 st18 st19">i</text>
		</g>
	</g>
	<g>
		<defs>
			<rect id="SVGID_00000106147870826212195230000006886395909208846774_" x="227.8" y="78.4" width="67.4" height="12.4"/>
		</defs>
		<clipPath id="SVGID_00000111150461108698688340000006767117932647353477_">
			<use xlink:href="#SVGID_00000106147870826212195230000006886395909208846774_"  style="overflow:visible;"/>
		</clipPath>
		<g style="clip-path:url(#SVGID_00000111150461108698688340000006767117932647353477_);">
			<text transform="matrix(1 0 0 1 256.4641 86.2267)" class="st6 st10 st11">→</text>
		</g>
	</g>
	<g>
		<defs>
			<rect id="SVGID_00000052087968397997627430000003879435635938262702_" x="227.8" y="78.4" width="67.4" height="12.4"/>
		</defs>
		<clipPath id="SVGID_00000076575619200287911860000014967073545662246041_">
			<use xlink:href="#SVGID_00000052087968397997627430000003879435635938262702_"  style="overflow:visible;"/>
		</clipPath>
		<g style="clip-path:url(#SVGID_00000076575619200287911860000014967073545662246041_);">
			<text transform="matrix(1 0 0 1 270.218 86.2267)" class="st6 st10 st11">(</text>
		</g>
	</g>
	<g>
		<defs>
			<rect id="SVGID_00000030486883953518165060000014276477324093160844_" x="227.8" y="78.4" width="67.4" height="12.4"/>
		</defs>
		<clipPath id="SVGID_00000023245190979319640530000004076898449958261645_">
			<use xlink:href="#SVGID_00000030486883953518165060000014276477324093160844_"  style="overflow:visible;"/>
		</clipPath>
		<g style="clip-path:url(#SVGID_00000023245190979319640530000004076898449958261645_);">
			<text transform="matrix(1 0 0 1 274.4855 86.2267)" class="st6 st18 st11">ρ</text>
		</g>
	</g>
	<g>
		<defs>
			<rect id="SVGID_00000114069117883974524870000003474127993440299439_" x="227.8" y="78.4" width="67.4" height="12.4"/>
		</defs>
		<clipPath id="SVGID_00000183950258602187545650000012922797745161005184_">
			<use xlink:href="#SVGID_00000114069117883974524870000003474127993440299439_"  style="overflow:visible;"/>
		</clipPath>
		<g style="clip-path:url(#SVGID_00000183950258602187545650000012922797745161005184_);">
			<text transform="matrix(1 0 0 1 280.2433 86.2267)" class="st6 st10 st11">,</text>
		</g>
	</g>
	<g>
		<defs>
			<rect id="SVGID_00000023259488507545635670000007537772191668567201_" x="227.8" y="78.4" width="67.4" height="12.4"/>
		</defs>
		<clipPath id="SVGID_00000060709187973890064580000015454208161717092533_">
			<use xlink:href="#SVGID_00000023259488507545635670000007537772191668567201_"  style="overflow:visible;"/>
		</clipPath>
		<g style="clip-path:url(#SVGID_00000060709187973890064580000015454208161717092533_);">
			<text transform="matrix(1 0 0 1 285.2814 86.2267)" class="st6 st13 st11">j</text>
		</g>
	</g>
	<g>
		<defs>
			<rect id="SVGID_00000129902470780211795690000016106018138210355328_" x="227.8" y="78.4" width="67.4" height="12.4"/>
		</defs>
		<clipPath id="SVGID_00000000928370074912746610000000285591121405192113_">
			<use xlink:href="#SVGID_00000129902470780211795690000016106018138210355328_"  style="overflow:visible;"/>
		</clipPath>
		<g style="clip-path:url(#SVGID_00000000928370074912746610000000285591121405192113_);">
			<text transform="matrix(1 0 0 1 289.0861 86.2267)" class="st6 st10 st11">)</text>
		</g>
	</g>
	<g>
		<defs>
			<rect id="SVGID_00000109012838170930409820000000618008909419791806_" x="227.8" y="78.4" width="67.4" height="12.4"/>
		</defs>
		<clipPath id="SVGID_00000121268327095973574870000009840639871173316247_">
			<use xlink:href="#SVGID_00000109012838170930409820000000618008909419791806_"  style="overflow:visible;"/>
		</clipPath>
		<g style="clip-path:url(#SVGID_00000121268327095973574870000009840639871173316247_);">
			<text transform="matrix(1 0 0 1 292.8898 89.0832)" class="st6 st18 st19">j</text>
		</g>
	</g>
</g>
</svg>
